<?xml version="1.0" encoding="utf-8"?>
<!-- Generator: Adobe Illustrator 27.3.1, SVG Export Plug-In . SVG Version: 6.00 Build 0)  -->
<svg version="1.1" id="Layer_1" xmlns="http://www.w3.org/2000/svg" xmlns:xlink="http://www.w3.org/1999/xlink" x="0px" y="0px"
	 viewBox="0 0 4302.61 1080" style="enable-background:new 0 0 4302.61 1080;" xml:space="preserve">
<style type="text/css">
	.st0{fill:#FFFFFF;}
	.st1{fill:url(#SVGID_1_);stroke:#38C0CB;stroke-width:45.5098;stroke-miterlimit:10;}
	.st2{fill:#FFFFFF;stroke:#38C0CB;stroke-width:45.5098;stroke-miterlimit:10;}
</style>
<g>
	<g>
		<path class="st0" d="M14.88,172.01c1.76-8.83,3.08-17.77,5.34-26.46C36.42,83.31,91.96,40.81,158.19,40.67
			c118.67-0.26,237.35-0.08,356.02-0.08c57.77,0,115.54,0,173.31,0c3.74,0,7.48,0,11.77,0c0,47.79,0,94.57,0,142.52
			c-180.18,0-359.91,0-540.35,0c0,237.99,0,474.82,0,712.72c179.93,0,359.68,0,540.18,0c0,47.85,0,94.64,0,142.88
			c-3.84,0-7.87,0-11.89,0c-175.05,0-350.11-0.86-525.16,0.37c-85.96,0.61-142.08-66.43-145.55-125.99
			c-0.12-2.01-1.08-3.96-1.64-5.95C14.88,662.09,14.88,417.05,14.88,172.01z"/>
		<path class="st0" d="M1526.29,539.3c0,117.27-0.13,234.54,0.07,351.81c0.07,45.38-15.44,83.52-50.12,113.41
			c-24.97,21.52-54.08,33.16-86.81,33.25c-146.5,0.41-293,0.76-439.5-0.07c-75.01-0.42-134.56-62.35-136.75-139.33
			c-0.03-1.04-0.05-2.09-0.05-3.13c0-237.32-0.28-474.65,0.18-711.97c0.12-61.67,29.71-106.39,85.74-131.55
			c16.61-7.46,36.27-11.18,54.57-11.3c144.06-0.89,288.13-0.91,432.19-0.33c80.21,0.32,140.2,62.87,140.4,145.3
			C1526.51,303.37,1526.29,421.33,1526.29,539.3z M956.62,894.9c142.36,0,284.1,0,426.19,0c0-237.54,0-474.37,0-711.71
			c-142.33,0-284.07,0-426.19,0C956.62,420.75,956.62,657.56,956.62,894.9z"/>
		<path class="st0" d="M2612.66,181.42c0,82.48,0,163.44,0,245.44c167.48,0,334.4,0,502,0c0,47.85,0,94.65,0,142.48
			c-167.35,0-334.24,0-501.85,0c0,108.7,0,216.38,0,325.12c189.59,0,302.94,0,492.94,0c0,47.81,0,94.57,0,142.06
			c-3.11,0.21-6.12,0.59-9.12,0.59c-187.26,0.03-298.67,0.16-485.93-0.06c-68.89-0.08-125.42-46.88-138.62-114.26
			c-1.99-10.17-2.73-20.74-2.74-31.12c-0.15-235.64-0.2-471.28-0.07-706.92c0.04-71.83,44.61-128.26,112.31-142.49
			c9.8-2.06,20.01-3.08,30.03-3.09c176.82-0.19,315.71-0.14,492.53-0.13c2.42,0,4.84,0.22,8.11,0.38c0,46.94,0,93.7,0,141.98
			C2933.18,181.42,2792.13,181.42,2612.66,181.42z"/>
		<g>
			<g>
				<path class="st0" d="M2207.46,178.83V38.22H1651.2c-3.41,0-6.73,0.38-10.24,0.57v997.05c2.18,0.19,3.51,0.47,4.93,0.47h253.72
					c102.68,0,205.27,0,307.85-0.28h9.39c32.43,0,61.25-11.66,86-32.8c33.18-28.44,49.3-64.47,50.44-107.52
					c0.1-1.52,0.1-3.03,0.1-4.65c0.09-96.71,0.28-193.42,0.47-290.22c0.09-21.14,0.09-42.38,0.19-63.52
					c0.09-56.32,0.19-112.54,0.19-168.86V178.83H2207.46z M1783.55,893.14V181.39h427.89v139.66h0.76v47.41h-0.76v524.69H1783.55z"
					/>
				<path class="st0" d="M2354.04,536.47c-0.09-21.24-0.09-42.38-0.19-63.62c-0.19-96.8-0.38-193.51-0.47-290.22
					c0-1.52,0-3.13-0.1-4.65c-1.14-43.05-17.25-79.07-50.44-107.52c-24.75-21.14-53.57-32.8-86-32.8h-9.39
					c-102.59-0.28-205.17-0.28-307.85-0.28h-253.72c-1.42,0-2.75,0.28-4.93,0.47v997.04c3.51,0.19,6.83,0.57,10.24,0.57h556.26
					V894.86h146.77V705.23C2354.23,649.01,2354.13,592.69,2354.04,536.47z M2212.2,752.64h-0.76V892.3h-427.89V180.54h427.89v524.69
					h0.76V752.64z"/>
			</g>
		</g>
	</g>
	<g>
		<linearGradient id="SVGID_1_" gradientUnits="userSpaceOnUse" x1="3444.3394" y1="540.659" x2="4924.459" y2="540.659">
			<stop  offset="0.095" style="stop-color:#000000"/>
			<stop  offset="0.1005" style="stop-color:#090909"/>
			<stop  offset="0.1307" style="stop-color:#373737"/>
			<stop  offset="0.1648" style="stop-color:#626262"/>
			<stop  offset="0.2014" style="stop-color:#888888"/>
			<stop  offset="0.2413" style="stop-color:#A8A8A8"/>
			<stop  offset="0.2854" style="stop-color:#C4C4C4"/>
			<stop  offset="0.3351" style="stop-color:#DADADA"/>
			<stop  offset="0.3932" style="stop-color:#EBEBEB"/>
			<stop  offset="0.465" style="stop-color:#F6F6F6"/>
			<stop  offset="0.5657" style="stop-color:#FDFDFD"/>
			<stop  offset="0.8453" style="stop-color:#FFFFFF"/>
		</linearGradient>
		<path class="st1" d="M3627.12,591.83c0.17,0.3,0.34,0.58,0.51,0.86c1.97,3.22,4.35,6.16,6.99,8.85l18.56,18.93l120.22,122.62
			l291.79,297.42c2.7,2.76,7.12,2.83,9.91,0.16l202.24-193c2.85-2.72,2.92-7.24,0.17-10.05l-242.93-247.66
			c-28.04-28.59-27.82-74.44,0.5-102.76l242.62-242.56c2.74-2.74,2.76-7.17,0.05-9.94L4087.57,40.81c-2.72-2.77-7.16-2.83-9.95-0.13
			l-300.19,290.79L3655,449.98l-8.61,8.39C3610.32,493.3,3601.48,548.68,3627.12,591.83z"/>
		<path class="st2" d="M3914.04,591.83c-0.17,0.3-0.34,0.58-0.51,0.86c-1.97,3.22-4.35,6.16-6.99,8.85l-18.56,18.93l-120.22,122.62
			l-291.79,297.42c-2.7,2.76-7.12,2.83-9.91,0.16l-202.24-193c-2.85-2.72-2.92-7.24-0.17-10.05l242.93-247.66
			c28.04-28.59,27.82-74.44-0.5-102.76l-242.62-242.56c-2.74-2.74-2.76-7.17-0.05-9.94l190.18-193.89c2.72-2.77,7.16-2.83,9.95-0.13
			l300.19,290.79l122.43,118.51l8.61,8.39C3930.84,493.3,3939.68,548.68,3914.04,591.83z"/>
	</g>
</g>
</svg>
